<svg xmlns="http://www.w3.org/2000/svg" viewBox="0 0 1600 500" role="img" aria-labelledby="title desc">
  <title id="title">HR Workflow Architect</title>
  <desc id="desc">Editorial hero banner for the HR Workflow Architect project.</desc>
  <defs>
    <linearGradient id="bg" x1="0" y1="0" x2="1" y2="1">
      <stop offset="0%" stop-color="#f5efe5" />
      <stop offset="100%" stop-color="#fbfbf9" />
    </linearGradient>
    <filter id="cardShadow" x="-20%" y="-20%" width="140%" height="140%">
      <feDropShadow dx="0" dy="16" stdDeviation="18" flood-color="#1b61c9" flood-opacity="0.08" />
    </filter>
  </defs>
  <rect width="1600" height="500" fill="url(#bg)" />
  <g filter="url(#cardShadow)">
    <rect x="58" y="58" width="1484" height="384" rx="34" fill="#fffdf8" stroke="#e6dfd1" stroke-width="2" />
  </g>
  <circle cx="1360" cy="108" r="92" fill="#1b61c9" opacity="0.08" />
  <circle cx="1414" cy="388" r="52" fill="#1b61c9" opacity="0.11" />
  <path d="M150 348c110-62 220-62 330 0s220 62 330 0 220-62 330 0 220 62 330 0" fill="none" stroke="#1b61c9" stroke-width="8" stroke-linecap="round" opacity="0.2" />

  <g transform="translate(64 126)">
    <rect x="0" y="0" width="110" height="110" rx="28" fill="#f8fafc" stroke="#d9e2ef" stroke-width="2" />
    <circle cx="34" cy="38" r="7" fill="#1b61c9" />
    <circle cx="78" cy="38" r="7" fill="#1b61c9" opacity="0.72" />
    <circle cx="56" cy="76" r="7" fill="#1b61c9" />
    <path d="M41 38h28M42 69l10-18M70 69l-10-18" fill="none" stroke="#1b61c9" stroke-width="5" stroke-linecap="round" stroke-linejoin="round" />
  </g>

  <text x="112" y="250" fill="#181d26" font-family="Georgia, 'Times New Roman', serif" font-size="68" font-weight="700" letter-spacing="-0.04em">HR Workflow Architect</text>
  <text x="112" y="302" fill="#4b5563" font-family="Inter, ui-sans-serif, system-ui, -apple-system, Segoe UI, Roboto, sans-serif" font-size="24" font-weight="500" letter-spacing="0.01em">Enterprise workflow orchestration for HR teams with validation, simulation, and time-travel editing.</text>
  <rect x="112" y="336" width="540" height="2" fill="#d9e2d5" />

  <g transform="translate(112 368)">
    <rect x="0" y="0" width="218" height="42" rx="21" fill="#181d26" />
    <text x="109" y="27" text-anchor="middle" fill="#ffffff" font-family="Inter, ui-sans-serif, system-ui, -apple-system, Segoe UI, Roboto, sans-serif" font-size="17" font-weight="600" letter-spacing="0.01em">Next.js + React Flow</text>
  </g>
  <g transform="translate(346 368)">
    <rect x="0" y="0" width="210" height="42" rx="21" fill="#f3f4f1" stroke="#d9e2d4" stroke-width="1.5" />
    <text x="105" y="27" text-anchor="middle" fill="#4b5563" font-family="Inter, ui-sans-serif, system-ui, -apple-system, Segoe UI, Roboto, sans-serif" font-size="17" font-weight="600" letter-spacing="0.01em">Zustand + Immer</text>
  </g>
  <g transform="translate(572 368)">
    <rect x="0" y="0" width="168" height="42" rx="21" fill="#f3f4f1" stroke="#d9e2d4" stroke-width="1.5" />
    <text x="84" y="27" text-anchor="middle" fill="#4b5563" font-family="Inter, ui-sans-serif, system-ui, -apple-system, Segoe UI, Roboto, sans-serif" font-size="17" font-weight="600" letter-spacing="0.01em">RHF + Zod</text>
  </g>
</svg>