<svg xmlns="http://www.w3.org/2000/svg" viewBox="0 0 1600 430" role="img" aria-labelledby="title desc">
  <title id="title">Workflow Canvas</title>
  <desc id="desc">Editorial hero banner for the workflow canvas module.</desc>
  <defs>
    <linearGradient id="bg" x1="0" y1="0" x2="1" y2="1">
      <stop offset="0%" stop-color="#f7f2e8" />
      <stop offset="100%" stop-color="#fcfcfa" />
    </linearGradient>
    <filter id="cardShadow" x="-20%" y="-20%" width="140%" height="140%">
      <feDropShadow dx="0" dy="14" stdDeviation="16" flood-color="#1b61c9" flood-opacity="0.08" />
    </filter>
  </defs>
  <rect width="1600" height="430" fill="url(#bg)" />
  <g filter="url(#cardShadow)">
    <rect x="52" y="52" width="1496" height="326" rx="34" fill="#fffdf8" stroke="#e6dfd1" stroke-width="2" />
  </g>
  <path d="M148 302c108-58 216-58 324 0s216 58 324 0 216-58 324 0 216 58 324 0" fill="none" stroke="#1b61c9" stroke-width="8" stroke-linecap="round" opacity="0.22" />

  <g transform="translate(1340 124)">
    <rect x="0" y="0" width="108" height="108" rx="28" fill="#f8fafc" stroke="#d9e2ef" stroke-width="2" />
    <circle cx="32" cy="34" r="8" fill="#1b61c9" />
    <circle cx="76" cy="34" r="8" fill="#1b61c9" opacity="0.72" />
    <circle cx="32" cy="76" r="8" fill="#1b61c9" opacity="0.72" />
    <circle cx="76" cy="76" r="8" fill="#1b61c9" />
    <path d="M40 34h28M32 42v26M76 42v26M40 76h28" fill="none" stroke="#1b61c9" stroke-width="5" stroke-linecap="round" />
  </g>

  <text x="112" y="238" fill="#181d26" font-family="Georgia, 'Times New Roman', serif" font-size="60" font-weight="700" letter-spacing="-0.04em">Workflow Canvas</text>
  <text x="112" y="286" fill="#4b5563" font-family="Inter, ui-sans-serif, system-ui, -apple-system, Segoe UI, Roboto, sans-serif" font-size="22" font-weight="500" letter-spacing="0.01em">Compose, connect, and inspect workflow graphs inside a premium React Flow surface.</text>
  <rect x="112" y="312" width="520" height="2" fill="#d9e2d5" />

  <g transform="translate(112 338)">
    <rect x="0" y="0" width="172" height="40" rx="20" fill="#f3f4f1" stroke="#d9e2d4" stroke-width="1.5" />
    <text x="86" y="26" text-anchor="middle" fill="#4b5563" font-family="Inter, ui-sans-serif, system-ui, -apple-system, Segoe UI, Roboto, sans-serif" font-size="16" font-weight="600">Custom Nodes</text>
  </g>
  <g transform="translate(296 338)">
    <rect x="0" y="0" width="214" height="40" rx="20" fill="#f3f4f1" stroke="#d9e2d4" stroke-width="1.5" />
    <text x="107" y="26" text-anchor="middle" fill="#4b5563" font-family="Inter, ui-sans-serif, system-ui, -apple-system, Segoe UI, Roboto, sans-serif" font-size="16" font-weight="600">MiniMap + Edge Delete</text>
  </g>
  <g transform="translate(524 338)">
    <rect x="0" y="0" width="194" height="40" rx="20" fill="#f3f4f1" stroke="#d9e2d4" stroke-width="1.5" />
    <text x="97" y="26" text-anchor="middle" fill="#4b5563" font-family="Inter, ui-sans-serif, system-ui, -apple-system, Segoe UI, Roboto, sans-serif" font-size="16" font-weight="600">Semantic Theme</text>
  </g>
</svg>