<svg xmlns="http://www.w3.org/2000/svg" viewBox="0 0 1600 430" role="img" aria-labelledby="title desc">
  <title id="title">Workflow App Shell</title>
  <desc id="desc">Editorial hero banner for the Next.js app shell and route layer.</desc>
  <defs>
    <linearGradient id="bg" x1="0" y1="0" x2="1" y2="1">
      <stop offset="0%" stop-color="#f7f2e8" />
      <stop offset="100%" stop-color="#fcfcfa" />
    </linearGradient>
    <filter id="cardShadow" x="-20%" y="-20%" width="140%" height="140%">
      <feDropShadow dx="0" dy="14" stdDeviation="16" flood-color="#1b61c9" flood-opacity="0.08" />
    </filter>
  </defs>
  <rect width="1600" height="430" fill="url(#bg)" />
  <g filter="url(#cardShadow)">
    <rect x="52" y="52" width="1496" height="326" rx="34" fill="#fffdf8" stroke="#e6dfd1" stroke-width="2" />
  </g>
  <circle cx="1370" cy="108" r="88" fill="#1b61c9" opacity="0.08" />
  <path d="M146 302c108-58 216-58 324 0s216 58 324 0 216-58 324 0 216 58 324 0" fill="none" stroke="#1b61c9" stroke-width="8" stroke-linecap="round" opacity="0.2" />

  <g transform="translate(114 124)">
    <rect x="0" y="0" width="108" height="108" rx="28" fill="#f8fafc" stroke="#d9e2ef" stroke-width="2" />
    <rect x="28" y="26" width="52" height="12" rx="6" fill="#1b61c9" opacity="0.9" />
    <rect x="28" y="48" width="52" height="12" rx="6" fill="#1b61c9" opacity="0.48" />
    <rect x="28" y="70" width="36" height="12" rx="6" fill="#1b61c9" opacity="0.24" />
    <rect x="68" y="70" width="12" height="12" rx="6" fill="#1b61c9" />
  </g>

  <g transform="translate(258 110)">
    <rect x="0" y="0" width="184" height="42" rx="21" fill="#181d26" />
    <text x="92" y="27" text-anchor="middle" fill="#ffffff" font-family="Inter, ui-sans-serif, system-ui, -apple-system, Segoe UI, Roboto, sans-serif" font-size="17" font-weight="600">App Shell</text>
  </g>

  <text x="112" y="238" fill="#181d26" font-family="Georgia, 'Times New Roman', serif" font-size="60" font-weight="700" letter-spacing="-0.04em">Workflow App Shell</text>
  <text x="112" y="286" fill="#4b5563" font-family="Inter, ui-sans-serif, system-ui, -apple-system, Segoe UI, Roboto, sans-serif" font-size="22" font-weight="500" letter-spacing="0.01em">Layout, theme, and route handlers that stitch the workflow experience together.</text>
  <rect x="112" y="312" width="520" height="2" fill="#d9e2d5" />

  <g transform="translate(112 338)">
    <rect x="0" y="0" width="208" height="40" rx="20" fill="#f3f4f1" stroke="#d9e2d4" stroke-width="1.5" />
    <text x="104" y="26" text-anchor="middle" fill="#4b5563" font-family="Inter, ui-sans-serif, system-ui, -apple-system, Segoe UI, Roboto, sans-serif" font-size="16" font-weight="600">Next.js App Router</text>
  </g>
  <g transform="translate(332 338)">
    <rect x="0" y="0" width="200" height="40" rx="20" fill="#f3f4f1" stroke="#d9e2d4" stroke-width="1.5" />
    <text x="100" y="26" text-anchor="middle" fill="#4b5563" font-family="Inter, ui-sans-serif, system-ui, -apple-system, Segoe UI, Roboto, sans-serif" font-size="16" font-weight="600">Theme + Query Providers</text>
  </g>
  <g transform="translate(544 338)">
    <rect x="0" y="0" width="172" height="40" rx="20" fill="#f3f4f1" stroke="#d9e2d4" stroke-width="1.5" />
    <text x="86" y="26" text-anchor="middle" fill="#4b5563" font-family="Inter, ui-sans-serif, system-ui, -apple-system, Segoe UI, Roboto, sans-serif" font-size="16" font-weight="600">Route Handlers</text>
  </g>
</svg>